<svg width="100" height="23" viewBox="0 0 100 23" fill="none" xmlns="http://www.w3.org/2000/svg">
<path d="M18.144 0.535999V4.92H12.192V23H6.72V4.92H0.768V0.535999H18.144ZM33.8463 23L29.1743 14.52H27.8623V23H22.3903V0.535999H31.5743C33.3449 0.535999 34.8489 0.845332 36.0863 1.464C37.3449 2.08267 38.2836 2.936 38.9023 4.024C39.5209 5.09067 39.8303 6.28533 39.8303 7.608C39.8303 9.10133 39.4036 10.4347 38.5503 11.608C37.7183 12.7813 36.4809 13.6133 34.8383 14.104L40.0223 23H33.8463ZM27.8623 10.648H31.2543C32.2569 10.648 33.0036 10.4027 33.4943 9.912C34.0063 9.42133 34.2623 8.728 34.2623 7.832C34.2623 6.97867 34.0063 6.30667 33.4943 5.816C33.0036 5.32533 32.2569 5.08 31.2543 5.08H27.8623V10.648ZM50.2373 0.535999V23H44.7653V0.535999H50.2373ZM69.4628 23L64.8868 16.12L60.8548 23H54.6468L61.8468 11.576L54.4868 0.535999H60.8548L65.3668 7.32L69.3348 0.535999H75.5428L68.4068 11.864L75.8308 23H69.4628ZM99.3418 0.535999L91.5658 15.576V23H86.0938V15.576L78.3178 0.535999H84.5258L88.8778 9.944L93.1978 0.535999H99.3418Z" fill="#4DCD4C"/>
</svg>
