<svg width="100" height="23" viewBox="0 0 100 23" fill="none" xmlns="http://www.w3.org/2000/svg">
<path d="M15.608 0.535999V4.92H6.456V9.656H13.304V13.912H6.456V23H0.984V0.535999H15.608ZM25.456 18.776H32.624V23H19.984V0.535999H25.456V18.776ZM42.206 4.92V9.464H49.534V13.688H42.206V18.616H50.494V23H36.734V0.535999H50.494V4.92H42.206ZM69.3065 23L64.7305 16.12L60.6985 23H54.4905L61.6905 11.576L54.3305 0.535999H60.6985L65.2105 7.32L69.1785 0.535999H75.3865L68.2505 11.864L75.6745 23H69.3065ZM99.1855 0.535999L91.4095 15.576V23H85.9375V15.576L78.1615 0.535999H84.3695L88.7215 9.944L93.0415 0.535999H99.1855Z" fill="#4DCD4C"/>
</svg>
