<svg width="14" height="14" viewBox="0 0 14 14" fill="none" xmlns="http://www.w3.org/2000/svg">
<path d="M12.2488 5.83317C12.2418 4.56442 12.1858 3.87725 11.7372 3.42925C11.2251 2.9165 10.3997 2.9165 8.75 2.9165H7C5.35033 2.9165 4.52492 2.9165 4.01275 3.42925C3.5 3.94142 3.5 4.76684 3.5 6.4165V9.33317C3.5 10.9828 3.5 11.8083 4.01275 12.3204C4.52492 12.8332 5.35033 12.8332 7 12.8332H8.75C10.3997 12.8332 11.2251 12.8332 11.7372 12.3204C12.25 11.8083 12.25 10.9828 12.25 9.33317V8.74984" stroke="white" stroke-width="0.875" stroke-linecap="round"/>
<path d="M1.75 5.83317V9.33317C1.75 9.7973 1.93437 10.2424 2.26256 10.5706C2.59075 10.8988 3.03587 11.0832 3.5 11.0832M10.5 2.9165C10.5 2.45238 10.3156 2.00726 9.98744 1.67907C9.65925 1.35088 9.21413 1.1665 8.75 1.1665H6.41667C4.21692 1.1665 3.11675 1.1665 2.43367 1.85017C2.05217 2.23109 1.88358 2.7415 1.8095 3.49984" stroke="white" stroke-width="0.875" stroke-linecap="round"/>
</svg>
