<svg width="32" height="32" viewBox="0 0 32 32" fill="none" xmlns="http://www.w3.org/2000/svg">
<g clip-path="url(#clip0_5_58)">
<path fill-rule="evenodd" clip-rule="evenodd" d="M2 0.999997L2 29C2 29.5523 2.44772 30 3 30L31 30L31 32L3 32C1.34315 32 1.17421e-07 30.6569 2.62268e-07 29L8.02757e-07 0.999997L2 0.999997Z" fill="#4DCD4C"/>
<path d="M25.7832 9.00183L20.9716 9.59994C20.8122 9.61988 20.7446 9.82174 20.8581 9.93887L22.2905 11.4167L16.8315 17.0489L14.3726 14.5144C14.2204 14.3574 13.9764 14.3599 13.8267 14.5144L6.05614 22.534C6.02017 22.5715 6 22.6221 6 22.6748C6 22.7276 6.02017 22.7782 6.05614 22.8156L7.1431 23.9421C7.21797 24.0193 7.34116 24.0193 7.41604 23.9421L14.0996 17.0489L16.5562 19.5834C16.7083 19.7379 16.9523 19.7379 17.1021 19.5834L23.6576 12.8247L25.09 14.3026C25.1157 14.3289 25.148 14.3473 25.1833 14.3556C25.2186 14.364 25.2555 14.3619 25.2897 14.3497C25.3239 14.3375 25.3541 14.3157 25.3769 14.2866C25.3997 14.2576 25.4141 14.2225 25.4185 14.1854L25.9982 9.22114C26.0151 9.09404 25.9089 8.98439 25.7832 9.00183Z" fill="#4DCD4C"/>
</g>
<defs>
<clipPath id="clip0_5_58">
<rect width="32" height="32" fill="white" transform="translate(32 32) rotate(-180)"/>
</clipPath>
</defs>
</svg>
