<svg width="44" height="44" viewBox="0 0 44 44" fill="none" xmlns="http://www.w3.org/2000/svg">
<g clip-path="url(#clip0_5_514)">
<path fill-rule="evenodd" clip-rule="evenodd" d="M2.75 1.37475L2.75 39.8748C2.75 40.6341 3.36561 41.2498 4.125 41.2498L42.625 41.2498L42.625 43.9998L4.125 43.9998C1.84682 43.9998 1.61455e-07 42.1529 3.60619e-07 39.8748L-8.83014e-08 1.37475L2.75 1.37475Z" fill="#4DCD4C"/>
<path d="M35.452 12.3775L28.836 13.1999C28.6168 13.2273 28.5238 13.5049 28.6799 13.6659L30.6494 15.698L23.1434 23.4422L19.7623 19.9573C19.5531 19.7414 19.2176 19.7448 19.0117 19.9573L8.32719 30.9843C8.27774 31.0358 8.25 31.1054 8.25 31.1779C8.25 31.2504 8.27774 31.32 8.32719 31.3715L9.82176 32.9203C9.92472 33.0266 10.0941 33.0266 10.1971 32.9203L19.387 23.4422L22.7647 26.9271C22.974 27.1396 23.3094 27.1396 23.5153 26.9271L32.5292 17.634L34.4988 19.666C34.5341 19.7023 34.5785 19.7275 34.627 19.739C34.6756 19.7505 34.7262 19.7477 34.7733 19.7309C34.8204 19.7141 34.8619 19.684 34.8932 19.6441C34.9245 19.6042 34.9444 19.556 34.9505 19.505L35.7476 12.6791C35.7708 12.5043 35.6247 12.3535 35.452 12.3775Z" fill="#4DCD4C"/>
</g>
<defs>
<clipPath id="clip0_5_514">
<rect width="44" height="44" fill="white" transform="translate(44 44) rotate(-180)"/>
</clipPath>
</defs>
</svg>
