<svg width="30" height="30" viewBox="0 0 30 30" fill="none" xmlns="http://www.w3.org/2000/svg">
<path d="M0 0H16C23.732 0 30 6.26801 30 14V16C30 23.732 23.732 30 16 30H0V0Z" fill="#65F967"/>
<path d="M12.5013 8.71687C13.3097 8.46005 14.1531 8.33072 15.0013 8.33354C18.4863 8.33354 20.858 10.4169 22.2721 12.2535C22.9805 13.1752 23.3346 13.6344 23.3346 15.0002C23.3346 16.3669 22.9805 16.826 22.2721 17.7469C20.858 19.5835 18.4863 21.6669 15.0013 21.6669C11.5163 21.6669 9.14464 19.5835 7.73047 17.7469C7.02214 16.8269 6.66797 16.366 6.66797 15.0002C6.66797 13.6335 7.02214 13.1744 7.73047 12.2535C8.16255 11.6892 8.64359 11.1641 9.16797 10.6844" stroke="#151515" stroke-width="1.25" stroke-linecap="round"/>
<path d="M17.5 15C17.5 15.663 17.2366 16.2989 16.7678 16.7678C16.2989 17.2366 15.663 17.5 15 17.5C14.337 17.5 13.7011 17.2366 13.2322 16.7678C12.7634 16.2989 12.5 15.663 12.5 15C12.5 14.337 12.7634 13.7011 13.2322 13.2322C13.7011 12.7634 14.337 12.5 15 12.5C15.663 12.5 16.2989 12.7634 16.7678 13.2322C17.2366 13.7011 17.5 14.337 17.5 15Z" stroke="#151515" stroke-width="1.25"/>
<path d="M8 23L23.5 7.5" stroke="#65F967" stroke-width="3"/>
<path d="M8 23L23.5 7.5" stroke="#65F967" stroke-width="3"/>
<path d="M8 23L22.5 8.5" stroke="#151515" stroke-width="1.3" stroke-linecap="round"/>
</svg>
