<svg width="17" height="17" viewBox="0 0 17 17" fill="none" xmlns="http://www.w3.org/2000/svg">
<path d="M6.74674 3.35773C7.39344 3.15227 8.0682 3.0488 8.74674 3.05106C11.5347 3.05106 13.4321 4.71773 14.5634 6.18706C15.1301 6.9244 15.4134 7.29173 15.4134 8.3844C15.4134 9.47773 15.1301 9.84506 14.5634 10.5817C13.4321 12.0511 11.5347 13.7177 8.74674 13.7177C5.95874 13.7177 4.06141 12.0511 2.93008 10.5817C2.36341 9.84573 2.08008 9.47706 2.08008 8.3844C2.08008 7.29106 2.36341 6.92373 2.93008 6.18706C3.27575 5.73561 3.66057 5.31554 4.08008 4.93173" stroke="#151515" stroke-width="0.98639" stroke-linecap="round"/>
<path d="M10.7461 8.38477C10.7461 8.9152 10.5354 9.42391 10.1603 9.79898C9.78523 10.1741 9.27653 10.3848 8.74609 10.3848C8.21566 10.3848 7.70695 10.1741 7.33188 9.79898C6.95681 9.42391 6.74609 8.9152 6.74609 8.38477C6.74609 7.85433 6.95681 7.34562 7.33188 6.97055C7.70695 6.59548 8.21566 6.38477 8.74609 6.38477C9.27653 6.38477 9.78523 6.59548 10.1603 6.97055C10.5354 7.34562 10.7461 7.85433 10.7461 8.38477Z" stroke="#151515" stroke-width="0.98639"/>
</svg>
