<svg width="17" height="17" viewBox="0 0 17 17" fill="none" xmlns="http://www.w3.org/2000/svg">
<path d="M8.85569 14.0977C7.50191 14.0977 6.32169 13.6555 5.31503 12.771C4.3088 11.887 3.72658 10.7737 3.56836 9.43103H4.24236C4.42369 10.5777 4.94614 11.531 5.80969 12.291C6.67325 13.051 7.68858 13.431 8.85569 13.431C10.1557 13.431 11.2584 12.9784 12.1637 12.073C13.069 11.1677 13.5219 10.0648 13.5224 8.76436C13.5228 7.46392 13.0699 6.36103 12.1637 5.4557C11.2575 4.55036 10.1548 4.0977 8.85569 4.0977C8.16547 4.0977 7.51703 4.24347 6.91036 4.53503C6.30369 4.82614 5.76814 5.22725 5.30369 5.73836H6.95769V6.40503H4.18903V3.63703H4.85569V5.22903C5.37125 4.66325 5.97525 4.22236 6.66769 3.90636C7.36014 3.59036 8.08947 3.43192 8.85569 3.43103C9.5948 3.43103 10.2877 3.57014 10.9344 3.84836C11.581 4.12659 12.1459 4.50747 12.629 4.99103C13.1121 5.47459 13.493 6.03947 13.7717 6.6857C14.0504 7.33192 14.1895 8.02481 14.189 8.76436C14.1886 9.50392 14.0495 10.1968 13.7717 10.843C13.4939 11.4893 13.113 12.0541 12.629 12.5377C12.145 13.0213 11.5801 13.4021 10.9344 13.6804C10.2886 13.9586 9.59569 14.0977 8.85569 14.0977ZM10.9917 11.3337L8.56036 8.90303V5.43103H9.22703V8.6257L11.463 10.8617L10.9917 11.3337Z" fill="#151515"/>
</svg>
