<svg width="44" height="44" viewBox="0 0 44 44" fill="none" xmlns="http://www.w3.org/2000/svg">
<path d="M21.9308 36.6666C18.2079 36.6666 14.9623 35.4505 12.194 33.0183C9.42685 30.5873 7.82574 27.5256 7.39062 23.8333H9.24412C9.74279 26.9866 11.1795 29.6083 13.5543 31.6983C15.9291 33.7883 18.7212 34.8333 21.9308 34.8333C25.5058 34.8333 28.5381 33.5884 31.0278 31.0988C33.5175 28.6091 34.7629 25.5761 34.7641 21.9999C34.7653 18.4237 33.5199 15.3908 31.0278 12.9011C28.5357 10.4114 25.5033 9.16659 21.9308 9.16659C20.0327 9.16659 18.2495 9.56747 16.5811 10.3693C14.9128 11.1698 13.44 12.2729 12.1628 13.6784H16.7113V15.5118H9.09746V7.89975H10.9308V12.2778C12.3486 10.7219 14.0096 9.50942 15.9138 8.64042C17.818 7.77142 19.8237 7.3357 21.9308 7.33325C23.9633 7.33325 25.8688 7.71581 27.6471 8.48092C29.4255 9.24603 30.9789 10.2935 32.3075 11.6233C33.636 12.953 34.6835 14.5065 35.4498 16.2836C36.2161 18.0607 36.5987 19.9661 36.5975 21.9999C36.5962 24.0337 36.2137 25.9391 35.4498 27.7163C34.6859 29.4934 33.6385 31.0468 32.3075 32.3766C30.9765 33.7064 29.423 34.7538 27.6471 35.5189C25.8712 36.284 23.9658 36.6666 21.9308 36.6666ZM27.8048 29.0656L21.1186 22.3813V12.8333H22.952V21.6186L29.101 27.7676L27.8048 29.0656Z" fill="#27BA24"/>
</svg>
