<svg width="44" height="44" viewBox="0 0 44 44" fill="none" xmlns="http://www.w3.org/2000/svg">
<g clip-path="url(#clip0_5_544)">
<path d="M26.2459 16.679C25.9919 15.9648 25.5234 15.3466 24.9046 14.9089C24.2857 14.4712 23.5467 14.2354 22.7887 14.2339H19.9507C19.1411 14.2296 18.3586 14.5258 17.7546 15.065C17.1507 15.6043 16.7681 16.3483 16.6809 17.1533C16.5937 17.9582 16.8081 18.7669 17.2826 19.423C17.7572 20.079 18.4581 20.5358 19.2499 20.705L23.5713 21.6479C24.4549 21.8413 25.2359 22.3545 25.7642 23.0887C26.2924 23.823 26.5307 24.7266 26.4333 25.6259C26.3358 26.5252 25.9095 27.3567 25.2362 27.9608C24.5629 28.5648 23.6901 28.8988 22.7856 28.8984H20.3436C18.747 28.8984 17.3893 27.8802 16.8864 26.4564M21.5662 14.2339V10.5662M21.5662 32.5662V28.9016M6.2793 42.4222V34.565H14.1364" stroke="#4DCD4C" stroke-width="1.8" stroke-linecap="round" stroke-linejoin="round"/>
<path d="M42.0756 18.241C42.91 22.6888 42.2439 27.2878 40.1818 31.3161C38.1197 35.3444 34.7785 38.5739 30.6824 40.4979C26.5864 42.4218 21.9674 42.9313 17.5506 41.9462C13.1337 40.9612 9.1689 38.5374 6.2785 35.0553M1.9225 25.7587C1.08815 21.3109 1.75429 16.712 3.81635 12.6837C5.87842 8.65542 9.21969 5.42586 13.3157 3.50191C17.4118 1.57795 22.0307 1.06852 26.4476 2.05358C30.8645 3.03863 34.8293 5.4624 37.7196 8.94446" stroke="#4DCD4C" stroke-width="1.8" stroke-linecap="round" stroke-linejoin="round"/>
<path d="M37.7204 1.57764V9.43478H29.8633" stroke="#4DCD4C" stroke-width="2.42857" stroke-linecap="round" stroke-linejoin="round"/>
</g>
<defs>
<clipPath id="clip0_5_544">
<rect width="44" height="44" fill="white"/>
</clipPath>
</defs>
</svg>
