<svg width="20" height="20" viewBox="0 0 20 20" fill="none" xmlns="http://www.w3.org/2000/svg">
<path d="M9.99935 8.75C9.11529 8.75 8.26745 8.42076 7.64233 7.83471C7.01721 7.24866 6.66602 6.4538 6.66602 5.625C6.66602 4.7962 7.01721 4.00134 7.64233 3.41529C8.26745 2.82924 9.11529 2.5 9.99935 2.5C10.8834 2.5 11.7312 2.82924 12.3564 3.41529C12.9815 4.00134 13.3327 4.7962 13.3327 5.625C13.3327 6.4538 12.9815 7.24866 12.3564 7.83471C11.7312 8.42076 10.8834 8.75 9.99935 8.75ZM9.99935 3.75C8.89268 3.75 7.99935 4.5875 7.99935 5.625C7.99935 6.6625 8.89268 7.5 9.99935 7.5C11.106 7.5 11.9993 6.6625 11.9993 5.625C11.9993 4.5875 11.106 3.75 9.99935 3.75Z" fill="#65F967"/>
<path d="M18 13.75C17.6267 13.75 17.3333 13.475 17.3333 13.125C17.3333 12.775 17.6267 12.5 18 12.5C18.3733 12.5 18.6667 12.225 18.6667 11.875C18.6667 11.0462 18.3155 10.2513 17.6904 9.66529C17.0652 9.07924 16.2174 8.75 15.3333 8.75H14C13.6267 8.75 13.3333 8.475 13.3333 8.125C13.3333 7.775 13.6267 7.5 14 7.5C15.1067 7.5 16 6.6625 16 5.625C16 4.5875 15.1067 3.75 14 3.75C13.6267 3.75 13.3333 3.475 13.3333 3.125C13.3333 2.775 13.6267 2.5 14 2.5C14.8841 2.5 15.7319 2.82924 16.357 3.41529C16.9821 4.00134 17.3333 4.7962 17.3333 5.625C17.3333 6.4 17.04 7.1 16.5333 7.65C18.52 8.15 20 9.85 20 11.875C20 12.9125 19.1067 13.75 18 13.75ZM2 13.75C0.893333 13.75 0 12.9125 0 11.875C0 9.85 1.46667 8.15 3.46667 7.65C2.97333 7.1 2.66667 6.4 2.66667 5.625C2.66667 4.7962 3.01786 4.00134 3.64298 3.41529C4.2681 2.82924 5.11595 2.5 6 2.5C6.37333 2.5 6.66667 2.775 6.66667 3.125C6.66667 3.475 6.37333 3.75 6 3.75C4.89333 3.75 4 4.5875 4 5.625C4 6.6625 4.89333 7.5 6 7.5C6.37333 7.5 6.66667 7.775 6.66667 8.125C6.66667 8.475 6.37333 8.75 6 8.75H4.66667C3.78261 8.75 2.93477 9.07924 2.30964 9.66529C1.68452 10.2513 1.33333 11.0462 1.33333 11.875C1.33333 12.225 1.62667 12.5 2 12.5C2.37333 12.5 2.66667 12.775 2.66667 13.125C2.66667 13.475 2.37333 13.75 2 13.75ZM14 17.5H6C4.89333 17.5 4 16.6625 4 15.625V14.375C4 11.9625 6.09333 10 8.66667 10H11.3333C13.9067 10 16 11.9625 16 14.375V15.625C16 16.6625 15.1067 17.5 14 17.5ZM8.66667 11.25C7.78261 11.25 6.93477 11.5792 6.30964 12.1653C5.68452 12.7513 5.33333 13.5462 5.33333 14.375V15.625C5.33333 15.975 5.62667 16.25 6 16.25H14C14.3733 16.25 14.6667 15.975 14.6667 15.625V14.375C14.6667 13.5462 14.3155 12.7513 13.6904 12.1653C13.0652 11.5792 12.2174 11.25 11.3333 11.25H8.66667Z" fill="#65F967"/>
</svg>
