<svg width="20" height="20" viewBox="0 0 20 20" fill="none" xmlns="http://www.w3.org/2000/svg">
<path d="M6.25065 9.16683C5.4451 9.16683 4.7576 8.88211 4.18815 8.31266C3.61871 7.74322 3.33398 7.05572 3.33398 6.25016C3.33398 5.44461 3.61871 4.75711 4.18815 4.18766C4.7576 3.61822 5.4451 3.3335 6.25065 3.3335C7.05621 3.3335 7.74371 3.61822 8.31315 4.18766C8.8826 4.75711 9.16732 5.44461 9.16732 6.25016C9.16732 7.05572 8.8826 7.74322 8.31315 8.31266C7.74371 8.88211 7.05621 9.16683 6.25065 9.16683ZM6.25065 7.50016C6.59787 7.50016 6.89315 7.37877 7.13648 7.136C7.37982 6.89322 7.50121 6.59794 7.50065 6.25016C7.5001 5.90238 7.37871 5.60739 7.13648 5.36516C6.89426 5.12294 6.59898 5.00127 6.25065 5.00016C5.90232 4.99905 5.60732 5.12072 5.36565 5.36516C5.12398 5.60961 5.00232 5.90461 5.00065 6.25016C4.99898 6.59572 5.12065 6.891 5.36565 7.136C5.61065 7.381 5.90565 7.50238 6.25065 7.50016ZM13.7507 16.6668C12.9451 16.6668 12.2576 16.3821 11.6882 15.8127C11.1187 15.2432 10.834 14.5557 10.834 13.7502C10.834 12.9446 11.1187 12.2571 11.6882 11.6877C12.2576 11.1182 12.9451 10.8335 13.7507 10.8335C14.5562 10.8335 15.2437 11.1182 15.8132 11.6877C16.3826 12.2571 16.6673 12.9446 16.6673 13.7502C16.6673 14.5557 16.3826 15.2432 15.8132 15.8127C15.2437 16.3821 14.5562 16.6668 13.7507 16.6668ZM13.7507 15.0002C14.0979 15.0002 14.3932 14.8788 14.6365 14.636C14.8798 14.3932 15.0012 14.0979 15.0007 13.7502C15.0001 13.4024 14.8787 13.1074 14.6365 12.8652C14.3943 12.6229 14.099 12.5013 13.7507 12.5002C13.4023 12.4991 13.1073 12.6207 12.8657 12.8652C12.624 13.1096 12.5023 13.4046 12.5007 13.7502C12.499 14.0957 12.6207 14.391 12.8657 14.636C13.1107 14.881 13.4057 15.0024 13.7507 15.0002ZM4.50065 16.6668L3.33398 15.5002L15.5007 3.3335L16.6673 4.50016L4.50065 16.6668Z" fill="#65F967"/>
</svg>
