<svg width="28" height="26" viewBox="0 0 28 26" fill="none" xmlns="http://www.w3.org/2000/svg">
<path d="M13.9049 1.20516C13.9123 1.18229 13.92 1.17054 13.924 1.16524C13.9281 1.15971 13.9323 1.15583 13.9372 1.1525C13.9481 1.14509 13.9697 1.13607 14 1.13607C14.0303 1.13607 14.0519 1.14509 14.0628 1.1525C14.0677 1.15583 14.0719 1.15971 14.076 1.16525C14.08 1.17054 14.0877 1.1823 14.0951 1.20516L16.5118 8.64286C16.7661 9.42571 17.4956 9.95573 18.3188 9.95573H26.1392C26.1633 9.95573 26.1768 9.95939 26.1831 9.96153C26.1896 9.96378 26.1946 9.96658 26.1993 9.9702C26.2097 9.97825 26.225 9.99601 26.2343 10.0248C26.2437 10.0536 26.2418 10.077 26.2381 10.0896C26.2364 10.0953 26.2341 10.1005 26.2301 10.1062C26.2263 10.1116 26.2175 10.1225 26.198 10.1366L19.8711 14.7334C19.2052 15.2172 18.9265 16.0748 19.1809 16.8576L21.5976 24.2953C21.605 24.3182 21.6057 24.3322 21.6056 24.3388C21.6056 24.3413 21.6054 24.3435 21.6051 24.3457C21.6046 24.3497 21.6037 24.3533 21.6024 24.3569C21.5979 24.3693 21.5857 24.3893 21.5612 24.4071C21.5367 24.4249 21.5139 24.4303 21.5008 24.4307C21.4949 24.4309 21.4892 24.4303 21.4826 24.4282C21.4762 24.4263 21.4631 24.4213 21.4437 24.4071L15.1168 19.8104C14.4509 19.3266 13.5491 19.3266 12.8832 19.8104L6.55632 24.4071C6.53687 24.4213 6.52376 24.4263 6.51743 24.4282C6.51081 24.4303 6.50513 24.4309 6.49922 24.4307C6.48606 24.4303 6.46329 24.425 6.43877 24.4071C6.41426 24.3893 6.40208 24.3693 6.39764 24.3569C6.39565 24.3514 6.39452 24.3458 6.39441 24.3388C6.39431 24.3322 6.39501 24.3182 6.40244 24.2953L8.8191 16.8576C9.07346 16.0748 8.79481 15.2172 8.12888 14.7334L1.802 10.1366C1.78255 10.1225 1.77373 10.1116 1.76993 10.1062C1.76595 10.1005 1.76356 10.0953 1.7619 10.0896C1.75821 10.077 1.75631 10.0536 1.76567 10.0248C1.77504 9.99601 1.79029 9.97825 1.8007 9.9702C1.80538 9.96658 1.81037 9.96378 1.81692 9.96153C1.82318 9.95939 1.83673 9.95573 1.86078 9.95573H9.68123C10.5044 9.95573 11.2339 9.4257 11.4882 8.64286L13.9049 1.20516Z" stroke="#4DCD4C" stroke-width="1.8"/>
</svg>
