<svg width="32" height="32" viewBox="0 0 32 32" fill="none" xmlns="http://www.w3.org/2000/svg">
<g clip-path="url(#clip0_5_48)">
<path d="M19.0875 12.1303C18.9028 11.6109 18.5621 11.1612 18.1121 10.8429C17.662 10.5246 17.1245 10.3531 16.5733 10.352H14.5093C13.9204 10.3489 13.3514 10.5643 12.9121 10.9565C12.4728 11.3486 12.1946 11.8898 12.1312 12.4752C12.0678 13.0606 12.2237 13.6488 12.5688 14.1259C12.9139 14.603 13.4237 14.9352 13.9995 15.0583L17.1424 15.744C17.785 15.8847 18.353 16.2579 18.7372 16.7919C19.1214 17.3259 19.2947 17.9831 19.2238 18.6371C19.153 19.2911 18.8429 19.8959 18.3532 20.3352C17.8636 20.7745 17.2288 21.0174 16.571 21.0171H14.795C13.6338 21.0171 12.6464 20.2766 12.2807 19.2411M15.6841 10.352V7.68457M15.6841 23.6846V21.0194M4.56641 30.8526V25.1383H10.2807" stroke="#4DCD4C" stroke-width="1.8" stroke-linecap="round" stroke-linejoin="round"/>
<path d="M30.6015 13.2662C31.2083 16.5009 30.7239 19.8456 29.2242 22.7753C27.7245 25.7049 25.2945 28.0537 22.3156 29.453C19.3366 30.8522 15.9774 31.2227 12.7651 30.5063C9.55283 29.7899 6.66935 28.0271 4.56725 25.4947M1.39925 18.7336C0.792449 15.4988 1.27691 12.1541 2.7766 9.22447C4.27628 6.29481 6.70629 3.94604 9.68523 2.5468C12.6642 1.14756 16.0234 0.777064 19.2357 1.49347C22.448 2.20987 25.3314 3.97261 27.4335 6.50502" stroke="#4DCD4C" stroke-width="1.8" stroke-linecap="round" stroke-linejoin="round"/>
<path d="M27.433 1.14746V6.86175H21.7188" stroke="#4DCD4C" stroke-width="2.42857" stroke-linecap="round" stroke-linejoin="round"/>
</g>
<defs>
<clipPath id="clip0_5_48">
<rect width="32" height="32" fill="white"/>
</clipPath>
</defs>
</svg>
