<svg width="44" height="44" viewBox="0 0 44 44" fill="none" xmlns="http://www.w3.org/2000/svg">
<path d="M3.66797 10.5417C3.66797 10.1771 3.81283 9.82734 4.0707 9.56948C4.32856 9.31161 4.6783 9.16675 5.04297 9.16675H33.4596C33.8243 9.16675 34.174 9.31161 34.4319 9.56948C34.6898 9.82734 34.8346 10.1771 34.8346 10.5417C34.8346 10.9064 34.6898 11.2562 34.4319 11.514C34.174 11.7719 33.8243 11.9167 33.4596 11.9167H5.04297C4.6783 11.9167 4.32856 11.7719 4.0707 11.514C3.81283 11.2562 3.66797 10.9064 3.66797 10.5417ZM3.66797 32.5417C3.66797 32.1771 3.81283 31.8273 4.0707 31.5695C4.32856 31.3116 4.6783 31.1667 5.04297 31.1667H27.9596C28.3243 31.1667 28.674 31.3116 28.9319 31.5695C29.1898 31.8273 29.3346 32.1771 29.3346 32.5417C29.3346 32.9064 29.1898 33.2562 28.9319 33.514C28.674 33.7719 28.3243 33.9167 27.9596 33.9167H5.04297C4.6783 33.9167 4.32856 33.7719 4.0707 33.514C3.81283 33.2562 3.66797 32.9064 3.66797 32.5417ZM5.04297 20.1667C4.6783 20.1667 4.32856 20.3116 4.0707 20.5695C3.81283 20.8273 3.66797 21.1771 3.66797 21.5417C3.66797 21.9064 3.81283 22.2562 4.0707 22.514C4.32856 22.7719 4.6783 22.9167 5.04297 22.9167H38.9596C39.3243 22.9167 39.674 22.7719 39.9319 22.514C40.1898 22.2562 40.3346 21.9064 40.3346 21.5417C40.3346 21.1771 40.1898 20.8273 39.9319 20.5695C39.674 20.3116 39.3243 20.1667 38.9596 20.1667H5.04297Z" fill="#27BA24"/>
</svg>
