<svg width="44" height="45" viewBox="0 0 44 45" fill="none" xmlns="http://www.w3.org/2000/svg">
<path d="M22.0951 3.93588L25.8588 15.5195C26.1132 16.3023 26.8427 16.8323 27.6659 16.8323H39.8456C39.8696 16.8323 39.8832 16.836 39.8894 16.8381C39.896 16.8404 39.901 16.8432 39.9056 16.8468C39.916 16.8549 39.9313 16.8726 39.9407 16.9014C39.95 16.9303 39.9481 16.9536 39.9444 16.9662C39.9428 16.9719 39.9404 16.9771 39.9364 16.9828C39.9326 16.9882 39.9238 16.9991 39.9043 17.0132L30.0507 24.1723C29.3848 24.6561 29.1062 25.5137 29.3605 26.2966L33.1243 37.8802C33.1317 37.903 33.1324 37.917 33.1323 37.9237C33.1323 37.9253 33.1322 37.9268 33.1321 37.9283C33.1316 37.9332 33.1306 37.9375 33.1291 37.9418C33.1246 37.9542 33.1125 37.9741 33.0879 37.992C33.0634 38.0098 33.0406 38.0152 33.0275 38.0156C33.0216 38.0157 33.0159 38.0151 33.0093 38.013C33.003 38.0111 32.9898 38.0061 32.9704 37.992L23.1168 30.8329C22.4509 30.3491 21.5491 30.3491 20.8832 30.8329L11.0296 37.992C11.0102 38.0061 10.997 38.0111 10.9907 38.013C10.9841 38.0151 10.9784 38.0157 10.9725 38.0156C10.9594 38.0152 10.9366 38.0098 10.9121 37.992C10.8875 37.9741 10.8754 37.9542 10.8709 37.9418C10.8689 37.9362 10.8678 37.9306 10.8677 37.9237C10.8676 37.917 10.8683 37.903 10.8757 37.8801L14.6395 26.2966C14.8938 25.5137 14.6152 24.6561 13.9493 24.1723L4.09566 17.0132C4.07621 16.9991 4.06739 16.9882 4.06359 16.9828C4.05961 16.9771 4.05722 16.9719 4.05556 16.9662C4.05187 16.9536 4.04997 16.9303 4.05933 16.9014C4.0687 16.8726 4.08395 16.8549 4.09437 16.8468C4.09904 16.8432 4.10403 16.8404 4.11058 16.8381C4.11684 16.836 4.1304 16.8323 4.15444 16.8323H16.3342C17.1573 16.8323 17.8868 16.3023 18.1412 15.5195L21.9049 3.93588C21.9123 3.91301 21.92 3.90125 21.924 3.89596C21.9281 3.89042 21.9323 3.88655 21.9372 3.88322C21.9481 3.8758 21.9697 3.86678 22 3.86678C22.0303 3.86678 22.0519 3.8758 22.0628 3.88322C22.0677 3.88655 22.0719 3.89042 22.076 3.89596C22.08 3.90125 22.0877 3.91301 22.0951 3.93588Z" stroke="#4DCD4C" stroke-width="1.8"/>
</svg>
