<svg width="68" height="13" viewBox="0 0 68 13" fill="none" xmlns="http://www.w3.org/2000/svg">
<path d="M6 0.485352L7.34708 4.63125H11.7063L8.17963 7.19356L9.52671 11.3395L6 8.77715L2.47329 11.3395L3.82037 7.19356L0.293661 4.63125H4.65292L6 0.485352Z" fill="#27BA24"/>
<path d="M20 0.485352L21.3471 4.63125H25.7063L22.1796 7.19356L23.5267 11.3395L20 8.77715L16.4733 11.3395L17.8204 7.19356L14.2937 4.63125H18.6529L20 0.485352Z" fill="#27BA24"/>
<path d="M34 0.485352L35.3471 4.63125H39.7063L36.1796 7.19356L37.5267 11.3395L34 8.77715L30.4733 11.3395L31.8204 7.19356L28.2937 4.63125H32.6529L34 0.485352Z" fill="#27BA24"/>
<path d="M48 0.485352L49.3471 4.63125H53.7063L50.1796 7.19356L51.5267 11.3395L48 8.77715L44.4733 11.3395L45.8204 7.19356L42.2937 4.63125H46.6529L48 0.485352Z" fill="#27BA24"/>
<path d="M62 0.485352L63.3471 4.63125H67.7063L64.1796 7.19356L65.5267 11.3395L62 8.77715L58.4733 11.3395L59.8204 7.19356L56.2937 4.63125H60.6529L62 0.485352Z" fill="#27BA24" fill-opacity="0.2"/>
<path d="M58.4726 11.3395L61.9993 8.77715V0.485352L60.6522 4.63125H56.293L59.8197 7.19356L58.4726 11.3395Z" fill="#27BA24"/>
</svg>
