<svg width="32" height="32" viewBox="0 0 32 32" fill="none" xmlns="http://www.w3.org/2000/svg">
<path d="M16.0003 15.9997C17.467 15.9997 18.7225 15.4775 19.767 14.433C20.8114 13.3886 21.3337 12.133 21.3337 10.6663C21.3337 9.19968 20.8114 7.94412 19.767 6.89968C18.7225 5.85523 17.467 5.33301 16.0003 5.33301C14.5337 5.33301 13.2781 5.85523 12.2337 6.89968C11.1892 7.94412 10.667 9.19968 10.667 10.6663C10.667 12.133 11.1892 13.3886 12.2337 14.433C13.2781 15.4775 14.5337 15.9997 16.0003 15.9997ZM26.667 26.6663L26.667 22.933C26.667 22.1775 26.4723 21.4832 26.083 20.8503C25.6937 20.2175 25.1772 19.7339 24.5337 19.3997C23.1559 18.7108 21.7559 18.1943 20.3337 17.8503C18.9114 17.5063 17.467 17.3339 16.0003 17.333C14.5337 17.3321 13.0892 17.5046 11.667 17.8503C10.2448 18.1961 8.84477 18.7126 7.46699 19.3997C6.82255 19.733 6.30566 20.2166 5.91633 20.8503C5.52699 21.4841 5.33277 22.1783 5.33366 22.933L5.33366 26.6663L26.667 26.6663Z" fill="#4DCD4C"/>
</svg>
