<svg width="44" height="44" viewBox="0 0 44 44" fill="none" xmlns="http://www.w3.org/2000/svg">
<path d="M32.9994 25.1428C34.2497 25.1428 35.4488 25.6395 36.3329 26.5236C37.217 27.4077 37.7137 28.6068 37.7137 29.8571V30.9807C37.7137 36.6017 31.098 40.8571 21.9994 40.8571C12.9009 40.8571 6.28516 36.8233 6.28516 30.9807V29.8571C6.28516 28.6068 6.78184 27.4077 7.66594 26.5236C8.55004 25.6395 9.74914 25.1428 10.9994 25.1428H32.9994ZM32.9994 27.5H10.9994C10.4137 27.5 9.84899 27.718 9.41527 28.1116C8.98155 28.5053 8.70992 29.0463 8.6533 29.6293L8.6423 29.8571V30.9807C8.6423 35.1827 13.9679 38.5 21.9994 38.5C29.7403 38.5 35.1287 35.1921 35.3503 31.2337L35.3566 30.9807V29.8571C35.3566 29.2714 35.1385 28.7067 34.7449 28.2729C34.3513 27.8392 33.8103 27.5676 33.2273 27.511L32.9994 27.5ZM21.9994 3.14282C23.2376 3.14282 24.4637 3.3867 25.6076 3.86053C26.7515 4.33436 27.7909 5.02886 28.6664 5.90439C29.542 6.77991 30.2365 7.81931 30.7103 8.96324C31.1841 10.1072 31.428 11.3332 31.428 12.5714C31.428 13.8096 31.1841 15.0356 30.7103 16.1796C30.2365 17.3235 29.542 18.3629 28.6664 19.2384C27.7909 20.1139 26.7515 20.8084 25.6076 21.2823C24.4637 21.7561 23.2376 22 21.9994 22C19.4988 22 17.1006 21.0066 15.3324 19.2384C13.5642 17.4702 12.5709 15.072 12.5709 12.5714C12.5709 10.0708 13.5642 7.67259 15.3324 5.90439C17.1006 4.13619 19.4988 3.14282 21.9994 3.14282ZM21.9994 5.49997C20.124 5.49997 18.3253 6.24499 16.9992 7.57114C15.673 8.89729 14.928 10.6959 14.928 12.5714C14.928 14.4469 15.673 16.2455 16.9992 17.5716C18.3253 18.8978 20.124 19.6428 21.9994 19.6428C23.8749 19.6428 25.6735 18.8978 26.9997 17.5716C28.3258 16.2455 29.0709 14.4469 29.0709 12.5714C29.0709 10.6959 28.3258 8.89729 26.9997 7.57114C25.6735 6.24499 23.8749 5.49997 21.9994 5.49997Z" fill="#27BA24"/>
</svg>
